<svg xmlns="http://www.w3.org/2000/svg" width="370" viewBox="0 0 370 37" height="37" fill="none"><g fill="#fff"><path d="m7.26653 29.2515v.7044h-7.26653v-.7044c2.26152-.1854 3.07715-1.0381 4.07816-4.1894l7.37774-23.28254h.9639l7.2295 24.02404c.9639 3.1513.9639 3.1884 3.2996 3.4479v.7044h-9.3056v-.7044c2.7805-.2224 3.1142-.4078 2.2244-3.4479l-1.1863-4.0781h-8.30465l-1.001 3.3366c-.92685 3.0401-.66733 3.967 1.89078 4.1894zm-.59318-8.4529h7.71145l-3.7816-12.93888z"></path><path d="m41.1992 29.9559h-6.1914v-3.4479c-1.6683 2.3728-3.4479 3.8187-5.7835 3.8187-3.7816 0-6.7104-3.7075-6.7104-9.8618 0-6.7845 4.041-10.89977 8.4899-10.89977 1.5571 0 3.0772.48197 4.004 1.03807v-4.63426c0-2.40982-.8897-2.66934-3.4849-2.66934v-.70441c2.8918 0 4.5972-.85271 6.5992-2.59519l.2966.185371v24.876729c0 3.8928.1483 3.9299 2.7805 4.1894zm-10.8627-1.3347c1.9649 0 3.8557-1.7424 4.6713-5.3016v-7.4889c0-3.7816-2.2986-5.0792-4.1893-5.0792-2.8547 0-4.6343 2.9289-4.6343 9.2685 0 5.7095 1.6313 8.6012 4.1523 8.6012z"></path><path d="m56.4631 13.9028-5.8578 16.6092h-.8897l-6.3026-16.8687c-.9269-2.484-1.2606-2.5952-2.7435-2.6323v-.7044c1.2976.0742 2.6693.1483 4.1152.1483s2.9289-.0741 4.3748-.1483v.7044c-1.6313.0371-2.3357.1112-2.3357.9639 0 .4449.2224 1.1493.5561 2.1874l3.8186 11.5301 3.2996-10.1213c.5561-1.6683.8527-2.7434.8527-3.4108 0-1.001-.7044-1.1122-2.3727-1.1493v-.7044c1.1122.0742 2.1874.1483 3.2254.1483 1.0752 0 2.0762-.0741 2.966-.1483v.7044c-1.6313.0742-1.7796.2595-2.7064 2.8918z"></path><path d="m74.9164 29.9559h-6.1914v-2.1503c-1.6312 1.2605-3.5591 2.5211-5.6352 2.5211-2.8547 0-3.9299-2.2616-3.9299-4.1524 0-2.2615 1.4459-3.3737 5.4499-4.7084l4.1152-1.3717v-4.004c0-3.8187-.8527-5.487-2.8917-5.487-3.7075 0-.8898 5.0792-4.2265 5.0792-1.4088 0-1.8908-.8527-1.8908-1.6313 0-2.1874 4.004-4.48597 7.489-4.48597s4.9309 1.96497 4.9309 5.52407v9.9729c0 3.8928.1483 3.9299 2.7805 4.1894zm-10.0471-1.5942c1.3718 0 3.5592-.8898 3.8557-3.2996v-3.6703l-2.7805.8898c-2.5581.8527-3.2996 2.002-3.2996 3.4849 0 1.2976.6673 2.5952 2.2244 2.5952z"></path><path d="m84.112 29.2515v.7044h-9.3056v-.7044c3.003-.2224 3.1142-.2966 3.1142-4.1894v-9.528c0-2.4099-.8898-2.6694-3.485-2.6694v-.7044c2.8918 0 4.5972-.8527 6.5992-2.59517l.2966.18537v3.0401c3.1513-2.2986 4.4118-3.22547 6.488-3.22547 3.0401 0 4.3377 2.03907 4.3377 6.26557v9.2314c0 3.8928.1483 3.9299 3.1513 4.1894v.7044h-9.3056v-.7044c2.6322-.2224 2.7434-.2966 2.7434-4.1894v-7.489c0-4.8196-1.7054-5.9318-3.2996-5.9318-1.9278 0-4.1152 2.002-4.1152 5.4499v7.9709c0 3.8928.1483 3.9299 2.7806 4.1894z"></path><path d="m103.4 10.6403c-2.633 0-4.0786 3.1884-4.0786 7.526 0 5.2646 2.0016 10.0471 5.5986 10.0471 1.705 0 3.707-1.1493 5.264-2.7805l.445.5932c-1.594 1.9278-3.819 4.3006-7.304 4.3006-4.189 0-7.6369-3.4109-7.6369-9.8988 0-6.1544 2.8918-10.86277 9.1199-10.86277 3.485 0 5.079 1.40877 5.079 2.78057 0 1.001-.704 2.0761-1.964 2.0761-2.41 0-1.669-3.7815-4.523-3.7815z"></path><path d="m118.831 30.3267c-4.041 0-7.6-3.3367-7.6-9.8988 0-6.1544 3.04-10.86277 8.045-10.86277 2.966 0 6.377 1.74247 6.377 7.63727l-10.789 1.1122c.037 5.2275 2.039 9.8988 5.599 9.8988 1.779 0 3.707-1.1493 5.264-2.7805l.445.5932c-1.594 1.9278-3.967 4.3006-7.341 4.3006zm-.037-19.6864c-2.261 0-3.559 2.4469-3.855 5.9318h7.192c-.223-5.3386-2.225-5.9318-3.337-5.9318z"></path><path d="m145.966 29.9559h-6.192v-3.4479c-1.668 2.3728-3.448 3.8187-5.783 3.8187-3.782 0-6.711-3.7075-6.711-9.8618 0-6.7845 4.041-10.89977 8.49-10.89977 1.557 0 3.077.48197 4.004 1.03807v-4.63426c0-2.40982-.89-2.66934-3.485-2.66934v-.70441c2.892 0 4.597-.85271 6.599-2.59519l.297.185371v24.876729c0 3.8928.148 3.9299 2.781 4.1894zm-10.863-1.3347c1.965 0 3.856-1.7424 4.671-5.3016v-7.4889c0-3.7816-2.298-5.0792-4.189-5.0792-2.855 0-4.634 2.9289-4.634 9.2685 0 5.7095 1.631 8.6012 4.152 8.6012z"></path><path d="m152.079 2.52104h10.529c7.044 0 10.9 5.19038 10.9 13.34666 0 8.8608-4.597 14.0882-11.53 14.0882h-9.862v-.7044c3.078-.2224 3.115-.2595 3.115-3.4479v-19.13025c0-3.18838-.075-3.18838-3.152-3.4479zm9.009.81563c-1.371 0-2.261.48197-2.261 2.33567v21.13226c0 2.0762 1.52 2.3357 2.892 2.3357 5.19 0 7.933-3.2255 7.933-10.974 0-7.3036-2.558-14.82963-8.564-14.82963z"></path><path d="m183.812 9.56513c5.265 0 8.156 3.74447 8.156 9.86177 0 6.5621-3.447 10.8998-8.638 10.8998-5.376 0-8.156-3.7445-8.156-9.8247 0-6.5992 3.374-10.93687 8.638-10.93687zm.148 19.79757c2.373 0 4.227-2.4098 4.227-8.1192 0-5.487-1.483-10.7144-5.116-10.7144-2.484 0-4.004 2.4098-4.004 8.045 0 5.6353 1.408 10.7886 4.893 10.7886z"></path><path d="m201.468 10.6403c-2.632 0-4.078 3.1884-4.078 7.526 0 5.2646 2.002 10.0471 5.598 10.0471 1.705 0 3.707-1.1493 5.264-2.7805l.445.5932c-1.594 1.9278-3.818 4.3006-7.303 4.3006-4.19 0-7.638-3.4109-7.638-9.8988 0-6.1544 2.892-10.86277 9.121-10.86277 3.485 0 5.079 1.40877 5.079 2.78057 0 1.001-.705 2.0761-1.965 2.0761-2.41 0-1.668-3.7815-4.523-3.7815z"></path><path d="m228.652 29.9559h-6.562v-2.8547c-3.151 2.2986-4.412 3.2255-6.488 3.2255-3.04 0-4.338-2.0391-4.338-4.7826v-10.01c0-2.4099-.889-2.6694-3.485-2.6694v-.7044c2.892 0 4.598-.8527 6.6-2.59517l.296.18537v14.0511c0 3.3367 1.706 4.4489 3.3 4.4489 1.928 0 4.115-2.002 4.115-3.5962v-9.1202c0-2.4099-.89-2.6694-3.485-2.6694v-.7044c2.892 0 4.597-.8527 6.599-2.59517l.297.18537v15.3116c0 3.8928.148 3.9299 3.151 4.1894z"></path><path d="m237.677 29.2515v.7044h-9.305v-.7044c3.003-.2224 3.114-.2966 3.114-4.1894v-9.528c0-2.4099-.89-2.6694-3.485-2.6694v-.7044c2.892 0 4.597-.8527 6.599-2.59517l.297.18537v3.0401c3.151-2.2986 4.411-3.22547 6.488-3.22547 2.261 0 3.559 1.11227 4.078 3.41087 3.336-2.4469 4.634-3.41087 6.747-3.41087 3.04 0 4.338 2.03907 4.338 6.26557v9.2314c0 3.8928.148 3.9299 3.151 4.1894v.7044h-9.305v-.7044c2.632-.2224 2.743-.2966 2.743-4.1894v-7.489c0-4.8196-1.705-5.9318-3.3-5.9318-1.927 0-4.115 2.002-4.115 5.4499v7.9709c0 3.8928.149 3.9299 3.152 4.1894v.7044h-9.306v-.7044c2.632-.2224 2.743-.2966 2.743-4.1894v-7.489c0-4.8196-1.705-5.9318-3.299-5.9318-1.928 0-4.115 2.002-4.115 5.4499v7.9709c0 3.8928.148 3.9299 2.78 4.1894z"></path><path d="m267.716 30.3267c-4.041 0-7.6-3.3367-7.6-9.8988 0-6.1544 3.04-10.86277 8.045-10.86277 2.966 0 6.377 1.74247 6.377 7.63727l-10.789 1.1122c.037 5.2275 2.039 9.8988 5.598 9.8988 1.78 0 3.708-1.1493 5.265-2.7805l.445.5932c-1.595 1.9278-3.967 4.3006-7.341 4.3006zm-.037-19.6864c-2.262 0-3.559 2.4469-3.856 5.9318h7.193c-.223-5.3386-2.225-5.9318-3.337-5.9318z"></path><path d="m284.692 29.2515v.7044h-9.306v-.7044c3.003-.2224 3.114-.2966 3.114-4.1894v-9.528c0-2.4099-.889-2.6694-3.484-2.6694v-.7044c2.891 0 4.597-.8527 6.599-2.59517l.296.18537v3.0401c3.152-2.2986 4.412-3.22547 6.488-3.22547 3.04 0 4.338 2.03907 4.338 6.26557v9.2314c0 3.8928.148 3.9299 3.151 4.1894v.7044h-9.305v-.7044c2.632-.2224 2.743-.2966 2.743-4.1894v-7.489c0-4.8196-1.705-5.9318-3.3-5.9318-1.927 0-4.115 2.002-4.115 5.4499v7.9709c0 3.8928.149 3.9299 2.781 4.1894z"></path><path d="m305.796 27.4719.408.6674c-1.001 1.1863-2.484 2.1874-4.449 2.1874-2.336 0-4.041-1.4459-4.041-4.0411v-14.8297l-2.262-.3707v-.7786c2.781 0 4.672-1.74247 4.968-4.44889h.705v3.92986l4.523.51903v.7786l-4.523.4449v14.2364c0 2.1133.704 2.9289 2.039 2.9289 1.112 0 1.965-.5561 2.632-1.2235z"></path><path d="m321.725 29.9559h-6.192v-2.1503c-1.631 1.2605-3.559 2.5211-5.635 2.5211-2.855 0-3.93-2.2616-3.93-4.1524 0-2.2615 1.446-3.3737 5.45-4.7084l4.115-1.3717v-4.004c0-3.8187-.853-5.487-2.892-5.487-3.707 0-.889 5.0792-4.226 5.0792-1.409 0-1.891-.8527-1.891-1.6313 0-2.1874 4.004-4.48597 7.489-4.48597s4.931 1.96497 4.931 5.52407v9.9729c0 3.8928.148 3.9299 2.781 4.1894zm-10.048-1.5942c1.372 0 3.56-.8898 3.856-3.2996v-3.6703l-2.78.8898c-2.559.8527-3.3 2.002-3.3 3.4849 0 1.2976.667 2.5952 2.224 2.5952z"></path><path d="m332.032 29.2515v.7044h-10.417v-.7044c3.003-.2224 3.114-.2966 3.114-4.1894v-9.528c0-2.4099-.89-2.6694-3.485-2.6694v-.7044c2.892 0 4.597-.8527 6.228-2.59517l.668.18537v3.1884c1.853-2.4469 3.373-3.37377 5.116-3.37377 1.631 0 2.78.77857 2.78 2.03907 0 1.001-.704 1.9649-1.816 1.9649-1.557 0-1.483-1.9278-2.855-1.9278-1.631 0-3.225 2.3357-3.225 7.2665v6.1543c0 3.8928.148 3.9299 3.892 4.1894z"></path><path d="m339.158 37c-1.705 0-2.818-.7044-2.818-2.1874 0-.8156.334-1.8166 1.595-1.8166 1.779 0 1.334 1.9278 2.817 1.9278 1.335 0 2.299-1.5571 3.522-5.005l-6.376-16.2755c-.927-2.3357-1.261-2.4098-2.744-2.6323v-.7044c1.298.0742 2.669.1483 4.115.1483s2.929-.0741 4.375-.1483v.7044c-1.631.1483-2.336.2595-2.336 1.0752 0 .4449.223 1.0751.557 2.0761l3.929 11.1593 3.189-9.7505c.519-1.6312.852-2.6693.852-3.2996 0-.9639-.704-1.1122-2.372-1.2605v-.7044c1.112.0742 2.187.1483 3.225.1483 1.075 0 2.076-.0741 2.966-.1483v.7044c-1.631.2595-1.817.4078-2.706 2.8918l-5.154 14.6443c-2.669 7.5631-4.708 8.4529-6.636 8.4529z"></path><path d="m365.018 6.06561h.03l2.013-6.06561h2.439v.233293c-.922 0-1.061.174969-1.061.767917v5.774c0 .59296.139.76792 1.061.76792v.2333h-3.233v-.2333c.923 0 1.061-.17496 1.061-.76792v-6.211419h-.029l-2.42 7.436209h-.496l-2.389-7.339004h-.03l.02 6.114214c0 .59296.129.76792 1.061.76792v.2333h-2.529v-.2333c.922 0 1.061-.17496 1.061-.76792v-5.774c0-.592948-.139-.767917-1.061-.767917v-.233293h2.489z"></path><path d="m360.311.262454.139 1.584446-.238.01944c-.109-1.263667-.308-1.467799-.913-1.467799h-1.269v6.376669c0 .59296.139.76792 1.061.76792v.2333h-3.233v-.2333c.923 0 1.061-.17496 1.061-.76792v-6.376669h-1.279c-.605 0-.803.204132-.912 1.467799l-.228-.01944.129-1.584446.02-.262454h5.642z"></path></g></svg>