<svg xmlns="http://www.w3.org/2000/svg" fill="none" viewBox="0 0 120 120" height="120" width="120">
<path fill="white" d="M42.45 46.1931C43.9639 44.3705 44.7141 42.0329 44.5436 39.6697C42.2233 39.8936 40.0815 41.0123 38.5721 42.7887C37.8204 43.6395 37.2443 44.6305 36.8769 45.7047C36.5094 46.7789 36.3579 47.9151 36.4309 49.048C37.5867 49.0707 38.732 48.8246 39.7765 48.3292C40.821 47.8338 41.7362 47.1025 42.45 46.1931ZM44.4008 49.4786C41.0701 49.2859 38.2628 51.3819 36.6688 51.3819C35.0748 51.3819 32.6481 49.5833 30.0312 49.6309C28.3176 49.6792 26.6467 50.1763 25.1855 51.0727C23.7243 51.969 22.5239 53.2332 21.7044 54.7388C18.1357 60.9244 20.7527 70.1386 24.2262 75.1751C25.9153 77.5685 27.9376 80.421 30.6259 80.3282C33.3143 80.2354 34.147 78.6629 37.216 78.6629C40.285 78.6629 41.1891 80.3282 43.8536 80.2687C46.5182 80.2093 48.3739 77.8706 50.0393 75.2727C51.2405 73.4982 52.1781 71.5589 52.8228 69.5153C51.223 68.807 49.8621 67.6514 48.9039 66.1876C47.9458 64.7238 47.4312 63.0141 47.4223 61.2646C47.442 59.7123 47.8509 58.1897 48.6115 56.8364C49.3721 55.483 50.4602 54.3422 51.776 53.5183C50.9399 52.3229 49.8397 51.3363 48.5607 50.6349C47.2817 49.9335 45.8582 49.5362 44.4008 49.4739M65.646 44.6776V51.4699H71.0704V55.9545H65.646V72.0252C65.646 74.4233 66.7166 75.6462 69.0957 75.6462C69.7481 75.6344 70.3994 75.5867 71.0466 75.5034V80.0237C69.9849 80.1956 68.9102 80.2752 67.8348 80.2616C62.2202 80.2616 60.0552 78.08 60.0552 72.6105V56.0616H55.7966V51.5651H59.9362V44.6824L65.646 44.6776ZM90.0316 80.0142H84.0839L74.0918 51.5651H80.0157L87.034 74.4233H87.1768L94.195 51.5651H100L90.0316 80.0142Z"></path>
</svg>
