<svg xmlns="http://www.w3.org/2000/svg" fill="none" viewBox="0 0 120 120" height="120" width="120">
<path fill="white" d="M52.1327 59.9999C52.1327 62.5694 51.6266 65.1137 50.6433 67.4876C49.66 69.8615 48.2187 72.0185 46.4018 73.8354C44.5849 75.6523 42.4279 77.0936 40.054 78.0769C37.6802 79.0602 35.1358 79.5663 32.5663 79.5663C29.9968 79.5663 27.4525 79.0602 25.0786 78.0769C22.7047 77.0936 20.5477 75.6523 18.7308 73.8354C16.9139 72.0185 15.4727 69.8615 14.4894 67.4876C13.5061 65.1137 13 62.5694 13 59.9999C13 54.8106 15.0614 49.8338 18.7308 46.1644C22.4002 42.495 27.377 40.4336 32.5663 40.4336C37.7556 40.4336 42.7324 42.495 46.4018 46.1644C50.0712 49.8338 52.1327 54.8106 52.1327 59.9999ZM39.4961 59.1575L33.7892 48.2601H27.8921C26.6077 48.253 25.3345 48.5002 24.1461 48.9876C22.9577 49.475 21.8775 50.1929 20.968 51.0999C20.0585 52.0069 19.3376 53.0851 18.8469 54.2721C18.3561 55.4592 18.1054 56.7316 18.109 58.0161C18.1387 59.8625 18.7628 61.6501 19.8887 63.1138C21.0146 64.5775 22.5823 65.6393 24.3593 66.1416V71.7397H33.1642V67.0655H34.2784C35.7187 67.0655 36.8328 65.9785 36.8328 64.6469V60.625L39.0069 60.1902C39.1196 60.1755 39.2269 60.1327 39.3189 60.0658C39.4108 59.999 39.4845 59.9101 39.5332 59.8073C39.5819 59.7045 39.604 59.5912 39.5975 59.4777C39.591 59.3641 39.5562 59.254 39.4961 59.1575ZM32.1044 58.5325C30.8814 58.5325 29.876 57.527 29.876 56.3041C29.876 55.0812 30.8814 54.0757 32.1044 54.0757C33.3272 54.0757 34.3328 55.0812 34.3328 56.3041C34.3328 57.527 33.3273 58.5325 32.1044 58.5325ZM46.8334 60.1902L44.6594 60.625V64.6469C44.6594 66.0057 43.5452 67.0655 42.1049 67.0655H40.9907V71.7397H37.4036V67.0655H38.5178C39.9581 67.0655 41.0722 65.9785 41.0722 64.6469V60.625L43.2463 60.1902C43.3528 60.1645 43.4523 60.1154 43.5374 60.0463C43.6225 59.9772 43.691 59.8899 43.7379 59.7909C43.7848 59.6918 43.809 59.5835 43.8085 59.4739C43.8081 59.3643 43.7831 59.2562 43.7355 59.1575L38.0286 48.2601H41.5886L47.2954 59.1575C47.54 59.5651 47.2954 60.1086 46.8334 60.1902Z" clip-rule="evenodd" fill-rule="evenodd"></path>
<path fill="white" d="M101.155 57.8258C99.0079 56.7116 97.2958 55.8148 97.2958 54.1028C97.2958 52.8799 98.3285 52.1461 100.095 52.1461C102.16 52.1461 104.008 52.8255 105.421 53.668V49.2384C103.735 48.517 101.928 48.1206 100.095 48.0698C94.9315 48.0698 92.6216 51.1407 92.6216 54.4832C92.6216 58.3965 95.2576 60.2716 98.1382 61.7934C100.992 63.3153 102.079 63.9675 102.079 65.598C102.079 66.9839 100.883 67.772 98.872 67.772C96.6437 67.7358 94.4989 66.9183 92.8118 65.4621V70.1635C94.6138 71.3027 96.687 71.9406 98.8176 72.0114C103.818 72.0114 106.997 69.4026 106.997 65.1904C107.025 60.7879 103.302 58.94 101.155 57.8258ZM62.946 48.26H56.75V71.7396H61.3698V64.2664H62.2938C68.0822 64.2664 71.6693 61.1956 71.6693 56.2496C71.6965 51.2493 68.4354 48.26 62.946 48.26ZM61.3698 52.1733H62.7286C65.4461 52.1733 67.1854 53.7495 67.1854 56.1681C67.1854 58.8041 65.5821 60.2988 62.7558 60.2988H61.3698V52.1733ZM86.4528 59.1031C88.029 58.016 88.7899 56.4127 88.7899 54.2658C88.7899 50.5699 86.0723 48.26 81.6699 48.26H74.4956V71.7396H81.9688C87.7028 71.7396 90.3117 68.0437 90.3117 64.6196C90.3819 63.4002 90.0393 62.1928 89.3392 61.1919C88.6391 60.1911 87.6223 59.4552 86.4528 59.1031ZM81.3166 52.2277C83.1374 52.2277 84.3059 53.3419 84.3059 55.1083C84.3059 56.8747 83.0287 58.016 81.072 58.016H79.1154V52.2549H81.3166V52.2277ZM79.1154 67.8264V61.6847H82.0504C84.3875 61.6847 85.7734 62.8261 85.7734 64.7284C85.7734 66.7666 84.3875 67.7992 81.6156 67.7992H79.1154V67.8264Z"></path>
</svg>
