<svg xmlns="http://www.w3.org/2000/svg" fill="none" viewBox="0 0 120 120" height="120" width="120">
<path fill="white" d="M34.517 47.6154C36.1371 48.0491 37.4103 49.3223 37.8439 50.9424C38.6276 53.8759 38.6308 60 38.6308 60C38.6308 60 38.6308 66.1242 37.8439 69.0577C37.4103 70.6778 36.1371 71.9509 34.517 72.3845C31.5836 73.1714 19.8153 73.1714 19.8153 73.1714C19.8153 73.1714 8.04725 73.1714 5.11373 72.3845C3.49365 71.9509 2.22049 70.6778 1.78681 69.0577C1 66.1242 1 60 1 60C1 60 1 53.8759 1.78681 50.9424C2.22049 49.3223 3.49365 48.0491 5.11373 47.6154C8.04725 46.8286 19.8153 46.8286 19.8153 46.8286C19.8153 46.8286 31.5836 46.8286 34.517 47.6154ZM25.8252 60.0005L16.0489 65.6444V54.3564L25.8252 60.0005Z" clip-rule="evenodd" fill-rule="evenodd"></path>
<path fill="white" d="M46.5764 63.9562L42.3512 48.697H46.0375L47.5182 55.6142C47.8961 57.3179 48.1717 58.7707 48.3514 59.9726H48.4598C48.5837 59.1114 48.8626 57.6679 49.2932 55.6389L50.8264 48.697H54.5127L50.2348 63.9562V71.2761H46.5734V63.9562H46.5764Z"></path>
<path fill="white" d="M55.6212 70.7923C54.8778 70.2905 54.3481 69.5098 54.0321 68.4504C53.7193 67.3911 53.5613 65.9847 53.5613 64.2252V61.8306C53.5613 60.0556 53.741 58.6277 54.1003 57.5528C54.4596 56.4779 55.0203 55.6911 55.7823 55.1985C56.5444 54.706 57.5449 54.4582 58.784 54.4582C60.0045 54.4582 60.9802 54.7091 61.7175 55.2109C62.4516 55.7127 62.9906 56.4996 63.3313 57.5652C63.6721 58.6339 63.8425 60.0556 63.8425 61.8306V64.2252C63.8425 65.9847 63.6753 67.3972 63.3439 68.4628C63.0123 69.5315 62.4734 70.3122 61.7298 70.8047C60.9864 71.2973 59.9766 71.545 58.7034 71.545C57.39 71.5481 56.3647 71.2941 55.6212 70.7923ZM59.7907 68.2089C59.9952 67.6699 60.1005 66.7932 60.1005 65.5727V60.4337C60.1005 59.2503 59.9983 58.3829 59.7907 57.8378C59.5832 57.2895 59.2208 57.0169 58.7003 57.0169C58.1986 57.0169 57.8423 57.2895 57.6379 57.8378C57.4303 58.3861 57.3281 59.2503 57.3281 60.4337V65.5727C57.3281 66.7932 57.4271 67.6729 57.6255 68.2089C57.8237 68.7478 58.1799 69.0173 58.7003 69.0173C59.2208 69.0173 59.5832 68.7478 59.7907 68.2089Z"></path>
<path fill="white" d="M75.8334 71.2792H72.9278L72.6056 69.2595H72.5251C71.7351 70.7836 70.5518 71.5455 68.972 71.5455C67.8785 71.5455 67.0701 71.1862 66.5496 70.4707C66.0292 69.752 65.769 68.6307 65.769 67.1066V54.7809H69.4832V66.8897C69.4832 67.627 69.5637 68.1505 69.7248 68.4634C69.8858 68.7762 70.1553 68.9342 70.5332 68.9342C70.8554 68.9342 71.1652 68.8351 71.4626 68.6369C71.76 68.4385 71.9768 68.1876 72.1223 67.8841V54.7778H75.8334V71.2792Z"></path>
<path fill="white" d="M85.9237 51.6858H82.2374V71.2786H78.6038V51.6858H74.9175V48.6996H85.9237V51.6858Z"></path>
<path fill="white" d="M94.8813 71.2792H91.9757L91.6535 69.2595H91.573C90.7831 70.7836 89.5998 71.5455 88.0199 71.5455C86.9264 71.5455 86.118 71.1862 85.5976 70.4707C85.0772 69.752 84.8169 68.6307 84.8169 67.1066V54.7809H88.5311V66.8897C88.5311 67.627 88.6116 68.1505 88.7727 68.4634C88.9337 68.7762 89.2032 68.9342 89.5812 68.9342C89.9033 68.9342 90.2131 68.8351 90.5105 68.6369C90.8079 68.4385 91.0247 68.1876 91.1702 67.8841V54.7778H94.8813V71.2792Z"></path>
<path fill="white" d="M107.174 57.4168C106.948 56.3759 106.585 55.6232 106.083 55.1554C105.582 54.6877 104.891 54.4554 104.011 54.4554C103.33 54.4554 102.691 54.6474 102.1 55.0346C101.508 55.4218 101.05 55.9268 100.727 56.5556H100.7V47.8635H97.1218V71.2758H100.188L100.566 69.7146H100.647C100.935 70.2722 101.366 70.7089 101.939 71.0343C102.512 71.3564 103.15 71.5175 103.85 71.5175C105.105 71.5175 106.031 70.9382 106.622 69.7827C107.214 68.6242 107.511 66.8182 107.511 64.3587V61.7474C107.511 59.9042 107.397 58.4576 107.174 57.4168ZM103.769 64.148C103.769 65.3499 103.72 66.2916 103.621 66.9731C103.522 67.6546 103.357 68.141 103.122 68.4259C102.89 68.714 102.574 68.8565 102.18 68.8565C101.874 68.8565 101.592 68.7852 101.331 68.6397C101.071 68.4972 100.861 68.2804 100.7 67.9954V58.6311C100.823 58.1819 101.04 57.8164 101.347 57.5283C101.651 57.2402 101.985 57.0977 102.341 57.0977C102.719 57.0977 103.01 57.2464 103.215 57.5407C103.422 57.838 103.565 58.3337 103.646 59.0338C103.726 59.7338 103.766 60.7282 103.766 62.0199V64.148H103.769Z"></path>
<path fill="white" d="M112.78 65.099C112.78 66.1583 112.811 66.9514 112.873 67.4811C112.935 68.0108 113.065 68.395 113.263 68.6397C113.461 68.8813 113.765 69.002 114.177 69.002C114.731 69.002 115.115 68.7852 115.32 68.3547C115.527 67.9241 115.639 67.2055 115.658 66.2018L118.861 66.3907C118.879 66.5332 118.888 66.7314 118.888 66.9823C118.888 68.5064 118.47 69.6464 117.637 70.3991C116.804 71.1519 115.624 71.5298 114.099 71.5298C112.269 71.5298 110.986 70.9567 110.252 69.8075C109.515 68.6583 109.149 66.8833 109.149 64.4794V61.5985C109.149 59.1235 109.53 57.3145 110.292 56.1745C111.054 55.0346 112.359 54.4646 114.208 54.4646C115.481 54.4646 116.46 54.6969 117.141 55.1647C117.823 55.6324 118.303 56.3573 118.582 57.3454C118.861 58.3336 119 59.6966 119 61.4374V64.2626H112.78V65.099ZM113.251 57.3238C113.062 57.5561 112.938 57.9371 112.873 58.4668C112.811 58.9965 112.78 59.7988 112.78 60.8769V62.0602H115.497V60.8769C115.497 59.8174 115.459 59.0151 115.388 58.4668C115.317 57.9185 115.187 57.5344 114.998 57.3083C114.809 57.0852 114.518 56.9706 114.124 56.9706C113.728 56.9737 113.437 57.0914 113.251 57.3238Z"></path>
</svg>
