<svg xmlns="http://www.w3.org/2000/svg" fill="none" viewBox="0 0 66 24" height="24" width="66">
<g clip-path="url(#clip0_1265_23603)">
<path fill="white" d="M12.4993 0.202808L20.2819 22.0394L21.8654 23.831H14.0154L15.5652 22.0394L13.2742 15.6169H5.22209L3.63862 20.2141L7.91737 23.831H0L3.3354 20.2479L8.96179 3.58309V0.169006H12.4993V0.202808ZM13.1732 15.3465L9.13024 3.95492L5.28948 15.3465H13.1732Z"></path>
<path fill="white" d="M20.5949 12C20.5949 5.37465 26.0191 0 32.5889 0C39.1586 0 44.5828 5.37465 44.5828 12C44.5828 18.6254 39.1586 24 32.5889 24C26.0191 24 20.5949 18.6254 20.5949 12ZM23.5597 7.90986C23.5597 14.4338 29.8936 22.5127 36.1601 22.5127C38.9228 22.5127 41.618 20.4507 41.618 16.0901C41.618 9.5662 35.2841 1.48732 29.0176 1.48732C26.255 1.48732 23.5597 3.5493 23.5597 7.90986Z"></path>
<path fill="white" d="M45.6507 23.831L47.47 21.769V2.23098L45.6507 0.169006H53.905C60.879 0.236613 66 5.30703 66 12.0338C66 18.8958 60.4747 23.831 53.8713 23.831H45.6507ZM51.8498 23.5606H53.7365C58.9249 23.5606 61.1148 18.1183 61.1148 12.0338C61.1148 5.67886 59.0597 0.439429 53.7702 0.439429H51.8498V23.5606Z"></path>
</g>
<defs>
<clipPath id="clip0_1265_23603">
<rect fill="white" height="24" width="66"></rect>
</clipPath>
</defs>
</svg>
