<svg xmlns="http://www.w3.org/2000/svg" width="225" viewBox="0 0 225 37" height="37" fill="none"><g fill="#fff"><path d="m0 6.22346v-3.91061h13.2961v3.91061h-4.49722v23.46374h-4.30167v-23.46374z"></path><path d="m18.7102 17.9553v11.7319h-4.3017v-27.37435h4.3017v11.73185h4.8882v-11.73185h4.3799v27.37435h-4.3799v-11.7319z"></path><path d="m34.6169 6.22346v7.62574h5.905v3.9106h-5.905v8.0167h7.4302v3.9107h-11.7319v-27.37435h11.7319v3.91061z"></path><path d="m57.6284 19.4804h4.067v3.6369c0 4.3799-2.1899 6.8827-6.4134 6.8827-4.2234 0-6.4134-2.5028-6.4134-6.8827v-14.23462c0-4.37989 2.19-6.88268 6.4134-6.88268 4.2235 0 6.4134 2.50279 6.4134 6.88268v2.65922h-4.067v-2.93296c0-1.95531-.8603-2.69833-2.229-2.69833-1.3688 0-2.2291.74302-2.2291 2.69833v14.78216c0 1.9553.8603 2.6592 2.2291 2.6592 1.3687 0 2.229-.7039 2.229-2.6592z"></path><path d="m63.5234 29.6872v-27.37435h4.3016v27.37435z"></path><path d="m79.3782 29.6872-5.3576-19.82687v19.82687h-3.8715v-27.37435h5.3966l4.419 16.38545v-16.38545h3.8324v27.37435z"></path><path d="m90.3966 6.22346v7.62574h5.905v3.9106h-5.905v8.0167h7.4302v3.9107h-11.7319v-27.37435h11.7319v3.91061z"></path><path d="m105.654 2.31285 3.168 19.43575 2.933-19.43575h5.983v27.37435h-4.067v-19.6313l-2.972 19.6313h-4.067l-3.207-19.3576v19.3576h-3.7538v-27.37435z"></path><path d="m129.627 2.31285 4.38 27.37435h-4.341l-.743-4.9665h-5.279l-.743 4.9665h-3.95l4.38-27.37435zm-3.363 4.84916-2.073 13.84359h4.146z"></path><path d="m132.487 6.22346v-3.91061h13.296v3.91061h-4.497v23.46374h-4.301v-23.46374z"></path><path d="m146.896 29.6872v-27.37435h4.301v27.37435z"></path><path d="m161.969 19.4804h4.067v3.6369c0 4.3799-2.19 6.8827-6.414 6.8827-4.223 0-6.413-2.5028-6.413-6.8827v-14.23462c0-4.37989 2.19-6.88268 6.413-6.88268 4.224 0 6.414 2.50279 6.414 6.88268v2.65922h-4.067v-2.93296c0-1.95531-.861-2.69833-2.23-2.69833-1.368 0-2.229.74302-2.229 2.69833v14.78216c0 1.9553.861 2.6592 2.229 2.6592 1.369 0 2.23-.7039 2.23-2.6592z"></path><path d="m177.455 6.22346v7.62574h5.905v3.9106h-5.905v8.0167h7.43v3.9107h-11.732v-27.37435h11.732v3.91061z"></path><path d="m190.797 29.6872v-9.0727l-5.436-18.30165h4.497l3.285 12.47485 3.285-12.47485h4.106l-5.436 18.30165v9.0727z"></path><path d="m205.793 6.22346v7.62574h5.905v3.9106h-5.905v8.0167h7.431v3.9107h-11.732v-27.37435h11.732v3.91061z"></path><path d="m221.461 2 .694 4.26.643-4.26h1.311v6h-.891v-4.30286l-.651 4.30286h-.892l-.703-4.24286v4.24286h-.823v-6z"></path><path d="m217 2.85714v-.85714h2.914v.85714h-.985v5.14286h-.943v-5.14286z"></path></g></svg>