<svg xmlns="http://www.w3.org/2000/svg" width="198" viewBox="0 0 198 37" height="37" fill="none"><g fill="#fff"><path d="m7.07846 29.9165c-2.12576 0-3.83973-.6622-5.1419-1.9866-1.29104-1.3244-1.93656-3.1775-1.93656-5.5593v-13.55591c0-2.84919.562048-5.03061 1.68614-6.54424 1.13523-1.513633 2.97719-2.27045 5.52588-2.27045 1.39121 0 2.6266.255982 3.70618.767947 1.0907.511963 1.9477 1.279913 2.5709 2.303843.6233 1.0128.9349 2.29271.9349 3.83973v5.07508h-5.84303v-4.34052c0-.87925-.1113-1.46912-.33389-1.76962-.22259-.31163-.56761-.46744-1.03506-.46744-.54535 0-.91263.20033-1.10184.601-.1892.38954-.2838.91263-.2838 1.56928v14.7078c0 .8125.11686 1.3857.35058 1.7196.24485.3339.58987.5008 1.03506.5008.50084 0 .85142-.2059 1.05175-.6177.21147-.4118.3172-.946.3172-1.6027v-5.2921h5.90983v5.5593c0 2.582-.6511 4.4574-1.9532 5.626-1.3022 1.1575-3.12191 1.7362-5.45914 1.7362z"></path><path d="m16.4608 29.6494v-29.382288h9.015c1.5025 0 2.6377.345019 3.4057 1.035058.7679.67891 1.2799 1.63606 1.5359 2.87145.2671 1.22427.4006 2.66556.4006 4.32388 0 1.6027-.2059 2.8826-.6177 3.8397-.4006.9572-1.163 1.6194-2.2871 1.9867.9238.1892 1.5693.6511 1.9366 1.3856.3784.7234.5676 1.6639.5676 2.8214v11.1185h-5.793v-11.5025c0-.857-.1781-1.3856-.5342-1.586-.3451-.2114-.9071-.3172-1.6862-.3172v13.4057zm5.9766-18.4975h1.419c.8125 0 1.2187-.8848 1.2187-2.6544 0-1.14636-.089-1.89761-.2671-2.25376s-.5119-.53422-1.0017-.53422h-1.3689z"></path><path d="m32.7546 29.6494v-29.382288h11.7529v5.676128h-5.7763v5.72616h5.5426v5.5259h-5.5426v6.7279h6.1603v5.7262z"></path><path d="m46.0434 29.6494 2.8381-29.382288h9.9666l2.788 29.382288h-5.5593l-.4174-4.7412h-3.5392l-.3673 4.7412zm6.4942-9.4324h2.6711l-1.2855-14.94154h-.2671z"></path><path d="m65.5259 29.6494v-23.73955h-3.4892v-5.642738h12.8548v5.642738h-3.4892v23.73955z"></path><path d="m76.5275 29.6494v-29.382288h11.753v5.676128h-5.7763v5.72616h5.5425v5.5259h-5.5425v6.7279h6.1602v5.7262z"></path><path d="m103.773 30c-1.825 0-3.261-.7067-4.3072-2.1202-1.0351-1.4135-1.5526-3.3612-1.5526-5.8431 0-1.7696.1558-3.2387.4674-4.4073.3228-1.1686.768-2.1425 1.3356-2.9216.5678-.779 1.2188-1.4579 1.9528-2.0367l-.133-.3339c-.468-1.1575-.879-2.2593-1.235-3.30548-.3455-1.05732-.518-2.14246-.518-3.25543 0-1.12409.239-2.1202.718-2.98831.478-.86811 1.141-1.54702 1.986-2.036728.857-.500835 1.837-.751252 2.939-.751252 1.09 0 2.081.239288 2.971.717863.902.467447 1.62 1.174177 2.154 2.120197s.801 2.14246.801 3.58932c0 1.56928-.295 2.88258-.885 3.93992-.578 1.0573-1.452 2.0757-2.621 3.0551l1.603 4.04c.657-1.6583 1.603-2.9438 2.838-3.8564l2.321 3.6227c-1.291 1.0351-2.371 2.7212-3.239 5.0584l2.938 7.3623h-5.676l-.651-1.586c-.434.5343-1.018.9906-1.753 1.369-.723.3784-1.541.5676-2.454.5676zm1.252-24.74124c0 .28938.072.71787.217 1.28548.145.55648.484 1.52476 1.018 2.90484.212-.22259.401-.57318.568-1.05175.167-.47858.25-1.13523.25-1.96995 0-.85698-.105-1.45799-.317-1.80301-.2-.34502-.467-.51753-.801-.51753-.323 0-.562.12243-.718.36728-.145.23373-.217.49527-.217.78464zm-2.003 17.49584c0 1.9811.562 2.9716 1.686 2.9716.456 0 .823-.1669 1.102-.5008.278-.345.467-.7012.567-1.0685l-2.804-6.828c-.368.7791-.551 2.1424-.551 4.0901z"></path><path d="m124.441 29.6494v-29.382288h11.753v5.676128h-5.777v5.72616h5.543v5.5259h-5.543v6.7279h6.161v5.7262z"></path><path d="m137.73 29.6494 2.838-29.382288h9.966l2.788 29.382288h-5.559l-.417-4.7412h-3.54l-.367 4.7412zm6.494-9.4324h2.671l-1.286-14.94154h-.267z"></path><path d="m155.125 29.6494v-29.382288h9.015c1.503 0 2.638.345019 3.406 1.035058.768.67891 1.28 1.63606 1.536 2.87145.267 1.22427.4 2.66556.4 4.32388 0 1.6027-.205 2.8826-.617 3.8397-.401.9572-1.163 1.6194-2.287 1.9867.923.1892 1.569.6511 1.936 1.3856.379.7234.568 1.6639.568 2.8214v11.1185h-5.793v-11.5025c0-.857-.178-1.3856-.534-1.586-.345-.2114-.907-.3172-1.687-.3172v13.4057zm5.977-18.4975h1.419c.812 0 1.219-.8848 1.219-2.6544 0-1.14636-.089-1.89761-.268-2.25376-.178-.35615-.512-.53422-1.001-.53422h-1.369z"></path><path d="m171.419 29.6494v-29.382288h6.043l2.705 14.073488v-14.073488h5.676v29.382288h-5.743l-2.938-14.6911v14.6911z"></path><path d="m192.959 6v-6h1.827l.505 3.65795.501-3.65795h1.844v6h-1.097v-4.32273l-.689 4.32273h-1.077l-.73-4.32273v4.32273z"></path><path d="m190.712 6v-4.84773h-.712v-1.15227h2.625v1.15227h-.712v4.84773z"></path></g></svg>