<svg xmlns="http://www.w3.org/2000/svg" width="253" viewBox="0 0 253 37" height="37" fill="none"><g fill="#fff"><path d="m15.9577 23.1831h-11.61967v6.507h-4.33803v-21.6901h15.9577l4.0282 3.7183v7.7465zm-.3098-9.9155-1.7042-1.5493h-9.60567v7.7465h9.60567l1.7042-1.5493z"></path><path d="m24.0262 8h18.5915v3.7183h-14.2535v5.2676h10.8451v3.7183h-10.8451v5.2676h14.5634v3.7183h-18.9014z"></path><path d="m57.6604 22.5634h-6.6619v7.1267h-4.3381v-21.6901h15.6479l4.0282 3.7183v7.1268l-3.7183 3.5634 5.2676 7.2816h-5.1127zm4.3381-9.2958-1.7043-1.5493h-9.2957v7.1268h9.2957l1.7043-1.5493z"></path><path d="m71.2918 8h18.5916v3.7183h-14.2536v5.8873h10.8451v3.7183h-10.8451v8.3662h-4.338z"></path><path d="m93.2906 8h18.5914v3.7183h-14.2534v5.2676h10.8454v3.7183h-10.8454v5.2676h14.5634v3.7183h-18.9014z"></path><path d="m134.361 25.9718v3.7183h-14.563l-4.338-4.0281v-13.6338l4.338-4.0282h14.563v3.7183h-12.549l-2.014 1.8592v10.5352l2.014 1.8591z"></path><path d="m148.758 29.6901h-4.338v-17.9718h-8.057v-3.7183h20.451v3.7183h-8.056z"></path><path d="m187.497 25.9718v3.7183h-14.563l-4.338-4.0281v-13.6338l4.338-4.0282h14.563v3.7183h-12.549l-2.014 1.8592v10.5352l2.014 1.8591z"></path><path d="m207.626 24.4225v-16.4225h4.338v17.9718l-4.338 4.0282h-11.774l-4.338-4.0282v-17.9718h4.338v16.4225l2.014 1.8592h7.746z"></path><path d="m227.615 29.6901h-4.338v-17.9718h-8.057v-3.7183h20.451v3.7183h-8.056z"></path><path d="m248.434 12.6286-1.843-2.5715v3.9429h-1.2v-6h1.2l2.271 3.2571 2.272-3.2571h1.2v6h-1.2v-3.9429l-1.843 2.5715z"></path><path d="m242.429 14h-1.2v-4.97143h-2.229v-1.02857h5.657v1.02857h-2.228z"></path></g></svg>